{"title":"[Naughty America My Friends Hot Girl][Porn .MP4] Cassidy Banks 2","uid":15440184,"size":170673110,"categoryP":"porn","categoryS":"movies","magnet":"?xt=urn:btih:e8fbcd61b545737d655c9630320cade82620ddd9&amp;dn=%5BNaughty+America+My+Friends+Hot+Girl%5D%5BPorn+.MP4%5D+Cassidy+Banks+2&amp;tr=udp%3A%2F%2Ftracker.leechers-paradise.org%3A6969&amp;tr=udp%3A%2F%2Fzer0day.ch%3A1337&amp;tr=udp%3A%2F%2Fopen.demonii.com%3A1337&amp;tr=udp%3A%2F%2Ftracker.coppersurfer.tk%3A6969&amp;tr=udp%3A%2F%2Fexodus.desync.com%3A6969","seeders":33,"leechers":3,"uploader":"PornyXXX","files":1,"time":1469811525,"description":"[Naughty America My Friends Hot Girl][Porn .MP4] Cassidy Banks 29 July 2016.mp4\r\n\r\nNFO:\r\n\r\nFormat                                   : MPEG-4\r\nFormat profile                           : Base Media\r\nCodec ID                                 : isom (isom/iso2/avc1/mp41)\r\nFile size                                : 163 MiB\r\nDuration                                 : 23mn 7s\r\nOverall bit rate mode                    : Variable\r\nOverall bit rate                         : 984 Kbps\r\nWriting application                      : Lavf54.29.104\r\n\r\nVideo\r\nID                                       : 1\r\nFormat                                   : AVC\r\nFormat/Info                              : Advanced Video Codec\r\nFormat profile                           :   \r\nFormat settings, CABAC                   : Yes\r\nFormat settings, ReFrames                : 4 frames\r\nCodec ID                                 : avc1\r\nCodec ID/Info                            : Advanced Video Coding\r\nDuration                                 : 23mn 7s\r\nBit rate                                 : 900 Kbps\r\nWidth                                    : 640 pixels\r\nHeight                                   : 360 pixels\r\nDisplay aspect ratio                     : 16:9\r\nFrame rate mode                          : Constant\r\nFrame rate                               : 24.000 fps\r\nColor space                              : YUV\r\nChroma subsampling                       : 4:2:0\r\nBit depth                                : 8 bits\r\nScan type                                : Progressive\r\nBits/(Pixel*Frame)                       : 0.163\r\nStream size                              : 149 MiB (92%)\r\nWriting library                          : x264 core 136\r\nEncoding settings                        : cabac=1 / ref=4 / deblock=1:0:0 / analyse=0x1:0x111 / me=hex / subme=6 / psy=1 / psy_rd=1.00:0.00 / mixed_ref=1 / me_range=16 / chroma_me=1 / trellis=1 / 8x8dct=0 / cqm=0 / deadzone=21,11 / fast_pskip=1 / chroma_qp_offset=-2 / threads=48 / lookahead_threads=2 / sliced_threads=0 / nr=0 / decimate=1 / interlaced=0 / bluray_compat=0 / constrained_intra=0 / bframes=3 / b_pyramid=0 / b_adapt=1 / b_bias=0 / direct=1 / weightb=1 / open_gop=0 / weightp=2 / keyint=150 / keyint_min=25 / scenecut=40 / intra_refresh=0 / rc_lookahead=40 / rc=2pass / mbtree=1 / bitrate=900 / ratetol=1.0 / qcomp=0.50 / qpmin=8 / qpmax=51 / qpstep=4 / cplxblur=20.0 / qblur=0.5 / ip_ratio=1.41 / aq=1:1.00\r\nLanguage                                 : English\r\n\r\nAudio\r\nID                                       : 2\r\nFormat                                   : AAC\r\nFormat/Info                              : Advanced Audio Codec\r\nFormat profile                           : LC\r\nCodec ID                                 : 40\r\nDuration                                 : 23mn 7s\r\nDuration_LastFrame                       : -20ms\r\nBit rate mode                            : Variable\r\nBit rate                                 : 77.6 Kbps\r\nMaximum bit rate                         : 96.0 Kbps\r\nChannel(s)                               : 2 channels\r\nChannel positions                        : Front: L R\r\nSampling rate                            : 44.1 KHz\r\nFrame rate                               : 43.066 fps (1024 spf)\r\nCompression mode                         : Lossy\r\nStream size                              : 12.8 MiB (8%)\r\nLanguage                                 : English\r\nDefault                                  : Yes\r\nAlternate group                          : 1","torrent":{"xt":"urn:btih:e8fbcd61b545737d655c9630320cade82620ddd9","amp;dn":"%5BNaughty+America+My+Friends+Hot+Girl%5D%5BPorn+.MP4%5D+Cassidy+Banks+2","amp;tr":["udp%3A%2F%2Ftracker.leechers-paradise.org%3A6969","udp%3A%2F%2Fzer0day.ch%3A1337","udp%3A%2F%2Fopen.demonii.com%3A1337","udp%3A%2F%2Ftracker.coppersurfer.tk%3A6969","udp%3A%2F%2Fexodus.desync.com%3A6969"],"infoHash":"e8fbcd61b545737d655c9630320cade82620ddd9","infoHashBuffer":{"type":"Buffer","data":[232,251,205,97,181,69,115,125,101,92,150,48,50,12,173,232,38,32,221,217]},"announce":[],"urlList":[]}}